<svg xmlns="http://www.w3.org/2000/svg" viewBox="15.847 158.91 1169.622 749.819"><g transform="translate(98.471 217.704) scale(.9864)"><path fill="#f2f2f2" d="M918.48-21.11h-353.61c-16.6 0-30.05 13.47-30.05 30.08v396.59c0 8.93 11.95 11.85 16.09 3.94 21.97-41.96 51.09-70.92 96.94-70.92h270.63c16.6 0 30.05-13.47 30.05-30.08V8.97c0-16.61-13.46-30.08-30.05-30.08zM411.29 265.34H57.68c-16.6 0-30.05 13.47-30.05 30.08v299.53c0 16.61 13.46 30.08 30.05 30.08h270.63c45.85 0 74.98 28.96 96.94 70.92 4.14 7.91 16.09 4.99 16.09-3.94v-396.59c0-16.61-13.46-30.08-30.05-30.08z"/></g><g transform="rotate(-16.969 850.785 -392.293) scale(.9863)"><path fill="#f9f9ff" d="m178.12,50.76h-86.46c-20.38,0-36.9,16.45-36.9,36.75v95.93c0,30.92,15.02-22.94,38.06-22.94h85.29c20.38,0,36.9-16.45,36.9-36.75v-36.23c0-20.3-16.52-36.75-36.9-36.75Z"/><path fill="#ffcc83" d="m136.62,68.5l9.64,19.46c.28.57.83.96,1.46,1.05l21.56,3.12c1.59.23,2.22,2.17,1.07,3.29l-15.6,15.15c-.46.44-.66,1.08-.56,1.71l3.68,21.39c.27,1.57-1.39,2.78-2.81,2.03l-19.28-10.1c-.56-.3-1.24-.3-1.8,0l-19.28,10.1c-1.42.74-3.08-.46-2.81-2.03l3.68-21.39c.11-.63-.1-1.26-.56-1.71l-15.6-15.15c-1.15-1.12-.51-3.06,1.07-3.29l21.56-3.12c.63-.09,1.18-.49,1.46-1.05l9.64-19.46c.71-1.43,2.76-1.43,3.47,0Z"/><path d="m56.93,193.76c-.18,0-.36-.03-.53-.08-1.7-.53-2.39-3.49-2.39-10.25v-95.93h1.5v95.93c0,7.8,1.02,8.72,1.33,8.82,1.16.35,4.43-4.39,7.32-8.58,6.58-9.53,16.53-23.93,28.66-23.93h85.29v1.5h-85.29c-11.34,0-21.02,14.01-27.42,23.28-3.9,5.65-6.38,9.24-8.47,9.24Z"/><path d="m113.8,136.67c-.55,0-1.11-.17-1.58-.51-.83-.6-1.24-1.61-1.07-2.62l3.68-21.39c.07-.38-.06-.77-.34-1.05l-15.6-15.15c-.74-.72-1-1.77-.68-2.74.32-.98,1.15-1.67,2.17-1.82l21.56-3.12c.38-.06.72-.3.89-.65l9.64-19.46c.46-.92,1.38-1.49,2.41-1.49s1.95.57,2.41,1.49l9.64,19.46c.17.35.51.59.89.65l21.56,3.12c1.02.15,1.85.85,2.17,1.82.32.98.06,2.03-.68,2.74l-15.6,15.15c-.28.27-.41.66-.34,1.04l3.68,21.39c.17,1.01-.24,2.02-1.07,2.62-.83.6-1.92.68-2.83.2l-19.28-10.1c-.35-.18-.76-.18-1.1,0l-19.29,10.1c-.4.21-.83.31-1.25.31Zm21.09-68.5c-.46,0-.86.25-1.06.66l-9.64,19.46c-.39.79-1.15,1.34-2.02,1.46l-21.56,3.12c-.46.07-.81.37-.96.8-.14.44-.03.89.3,1.21l15.6,15.15c.63.62.92,1.5.77,2.37l-3.68,21.39c-.08.45.1.88.47,1.15.37.27.84.3,1.25.09l19.29-10.1c.78-.41,1.72-.41,2.5,0l19.28,10.1c.41.21.87.18,1.25-.09.37-.27.55-.7.47-1.15l-3.68-21.39c-.15-.87.14-1.75.77-2.37l15.6-15.15c.33-.32.44-.77.3-1.21-.14-.44-.5-.74-.96-.8l-21.56-3.12c-.88-.13-1.63-.67-2.02-1.46l-9.64-19.46c-.2-.41-.6-.66-1.06-.66Z"/></g><g transform="rotate(12.926 -2347.738 3575.956) scale(.9863)"><rect width="149.5" height="126.51" x="59.76" y="59.01" fill="#b8c2d8" rx="18.58" ry="18.58"/><rect width="127.42" height="107.83" x="70.8" y="68.35" fill="#f9f9ff" rx="9.42" ry="9.42"/><ellipse cx="141.93" cy="96.04" fill="#ffcc83" rx="12.35" ry="12.26"/><path fill="#112e5b" d="m148.97,155.63h-67.22c-2.2,0-3.59-2.36-2.51-4.26l31.18-55.13c1.06-1.88,3.75-1.96,4.93-.16l36.05,55.13c1.24,1.9-.13,4.42-2.42,4.42Z"/><path fill="#32ce95" d="m184.08,155.63h-53.95c-2.34,0-3.71-2.63-2.35-4.53l25.02-34.79c1.1-1.53,3.36-1.61,4.57-.16l28.93,34.79c1.55,1.87.21,4.68-2.22,4.68Z"/><path d="M149.33 186.26h-70.92c-10.7 0-19.4-8.64-19.4-19.26h1.5c0 9.79 8.03 17.76 17.89 17.76h70.92v1.49zM210.01 115.11h-1.5v-37.6c0-9.79-8.03-17.76-17.89-17.76h-112.21v-1.49h112.21c10.7 0 19.4 8.64 19.4 19.26v37.6z"/></g><g transform="translate(-2.998 353.416) scale(.64483)"><path fill="#b8c2d8" d="m673.63,732.77c-.06.07-.12.12-.19.19h-.01c-.57.57-1.15,1.12-1.75,1.64-2.52,2.31-5.25,4.43-8.18,6.37-11.41,7.53-24.26,11.15-36.98,11.15-1.79,0-3.57-.07-5.35-.22-3.09-.24-6.16-.69-9.18-1.37l-.12-.46-1.57-5.8h-15.36c-.19-.11-.37-.21-.56-.3-.09-.03-.17-.08-.25-.13-.06-.03-.11-.07-.17-.1-.36-.19-.72-.39-1.06-.59-.38-.22-.75-.44-1.12-.66-.37-.22-.74-.45-1.11-.68-.36-.22-.73-.46-1.09-.69-.37-.25-.74-.49-1.11-.74-.32-.24-.66-.46-1-.69-.71-.5-1.4-1.02-2.07-1.54-.32-.25-.64-.49-.95-.74-2.68-2.14-5.15-4.46-7.43-6.95-.45-.48-.9-.98-1.33-1.49-.11-.12-.22-.26-.34-.39-.36-.43-.72-.85-1.07-1.29-.01-.02-.03-.03-.03-.06-.43-.51-.84-1.04-1.24-1.58-.02-.03-.04-.06-.07-.09-.44-.57-.86-1.16-1.29-1.76-.04-.06-.08-.11-.12-.17-.31-.46-.64-.93-.94-1.4-.17-.22-.31-.45-.45-.67l-55.44-83.8-2.91-4.4-1.27-1.91-10.19-15.41-1.28-1.92-19.93-30.12-41.94-63.42s-.04-.08-.07-.11c-1.18-1.77-2.25-3.58-3.21-5.42-3.57-6.66-5.89-13.71-7.03-20.86-.24-1.44-.41-2.89-.55-4.34h0c-.19-2.01-.28-4.01-.29-6.01h0c-.02-7.02,1.05-13.99,3.17-20.65v-.03c.62-1.9,1.3-3.77,2.08-5.62h.01c.55-1.37,1.16-2.69,1.82-3.99,3.92-7.88,9.45-15.07,16.46-21.05,2.07-1.77,4.27-3.42,6.59-4.96,3.19-2.1,6.49-3.91,9.87-5.4,9.98-4.42,20.63-6.23,31.07-5.61h.03c20.39,1.21,39.98,11.66,52.11,29.99l61.19,92.51,64.15,96.99,7.89,11.93c18.01,27.23,13.58,62.77-8.86,84.83Z"/><path fill="#fad0c9" d="m773.5,484.55c-.71,4.71-1.94,9.42-3.71,14.05l-44.78,215.97c-1.79,4.69-4.06,9.06-6.74,13.08,0,.01,0,.02-.01.03-.15.24-.31.48-.47.72,0,0,0,.01-.01.02-.21.29-.41.59-.64.88-12.62,17.89-33.25,28.41-54.87,28.41-5.16,0-25.34-2.93-41.1-5.83-3.37-.62-6.53-1.23-9.3-1.82l-1.57-5.8h-15.36c-.19-.11-.37-.21-.56-.3h0c-.08-.06-.17-.1-.25-.13-.06-.03-.11-.07-.17-.1-.36-.19-.72-.39-1.06-.59-.38-.22-.75-.44-1.12-.66-.37-.22-.74-.45-1.11-.68-.36-.22-.73-.46-1.09-.69-.37-.25-.74-.49-1.11-.74-.32-.24-.66-.46-1-.69-.71-.5-1.4-1.02-2.07-1.54-.32-.25-.64-.49-.95-.74-2.68-2.14-5.15-4.46-7.43-6.95-.45-.48-.9-.98-1.33-1.49-.11-.12-.22-.26-.34-.39-.36-.43-.72-.85-1.07-1.29-.01-.02-.03-.03-.03-.06-.43-.51-.84-1.04-1.24-1.58-.02-.03-.04-.06-.07-.09-.44-.57-.86-1.16-1.29-1.76-.04-.06-.08-.11-.12-.17-.31-.46-.64-.93-.94-1.4-.17-.22-.31-.45-.45-.67-9.4-14.48-13.13-32.41-9.51-50.03.73-3.55,1.76-7.08,3.09-10.57l12.8-33.39,1.09-2.84h0s.28-.73.28-.73l4.01-10.47s.01-.01.01-.02l8.03-20.94s.02-.06.03-.09l11.89-31.02v-.02s.01-.02.01-.02l8.58-22.38,33.89-88.45c2.09-5.47,4.83-10.51,8.08-15.06.01-.02.02-.04.03-.07,5.91-8.22,13.54-14.87,22.15-19.63,16.73-9.22,37.26-11.29,56.49-3.93,8.25,3.16,15.53,7.78,21.63,13.44.72.65,1.4,1.32,2.08,2,14.7,14.86,21.9,36.08,18.7,57.22Z"/><ellipse cx="301.46" cy="349.49" fill="#ffcc83" rx="34.85" ry="34.83"/><path fill="#ffcc83" d="m400.14,234.32s-67.99-30.06-102.92,18.64c-34.93,48.7,4.65,115.92,50.97,106.74l51.95-125.39Z"/><path fill="#b8c2d8" d="m609.78,744.28h-313.54l-118.74,86.16c-1.8,1.31-3.66,2.52-5.55,3.65l.09-.03-5.04,3.98c-1.55,1.21-3.15,2.32-4.8,3.31-2.47,3.09-8.09,8.19-20.52,13.71-5.69,2.53-16.73,2.47-29.75-.25-.12-3.45-.24-6.85-.34-10.21-.01-.39-.02-.78-.03-1.16-.02-.81-.04-1.61-.07-2.42-.09-2.81-.17-5.6-.24-8.36-.08-3.19-.16-6.34-.22-9.47,0-.12,0-.25-.01-.37-.01-.9-.03-1.8-.06-2.69-.55-27.81-.53-52.99-.04-75.87.28-13.22.72-25.66,1.29-37.41h0c.35-7.05.74-13.83,1.18-20.38.01-.22.02-.44.04-.66.03-.54.07-1.07.11-1.61.11-1.71.22-3.4.35-5.08.06-.75.11-1.5.17-2.24.03-.37.06-.74.09-1.1,6.43-84.06,20.11-126.65,29.78-159.95.13-.46.27-.91.41-1.35v-.03c2.02-6.52,4.74-12.69,7.99-18.52l.02-.03c10.48-18.61,26.61-33.72,43.46-45.59.01-.01.03-.01.04-.02,29.78-20.97,61.73-31.79,68.26-33.87.79-.26,1.21-.38,1.21-.38,0,0,.99-.16,2.78-.44h.01c5.88-.9,20.39-3.1,37.53-5.6,2.52-.36,5.09-.73,7.71-1.11.49-.07.99-.15,1.49-.21.49-.07,1-.15,1.5-.21,22.77-3.23,47.81-6.57,62.82-7.9,8.72-.77,16.65-1.6,25.28-1.8.01.01.02.01.03,0,4.6-.11,9.39-.06,14.6.28,0,0,0,.01.01,0t.02,0s.02.01.03,0c0,0,0,.01.01,0,6.19.4,12.96,1.2,20.72,2.55.47.09.95.17,1.44.26.87.16,1.76.32,2.66.49h.01c13.99,2.69,31.04,7.11,53.11,14.17h.03c8.07,2.57,16.81,5.51,26.3,8.83,2.92,10.5,6.82,24.65,11.4,41.43,9.61,35.16,22.25,81.89,35.46,130.85h0c.31,1.14.62,2.28.93,3.42.59,2.2,1.19,4.43,1.79,6.65,1.52,5.65,3.06,11.32,4.58,17.01h0c.63,2.31,1.25,4.6,1.87,6.89v.02c.32,1.19.64,2.37.95,3.56,10.2,37.85,20.35,75.6,29.36,109.09Z"/><path fill="#fad0c9" d="m299.05,401.24s83.19,114.61,130.41,114.61c31.48,0,17.99-107.87,17.99-107.87l-38.22-38.2-73.48-32.65-7.46-3.3c6.54,25.91-29.23,67.42-29.23,67.42Z"/><path d="m335.74,337.12c3.35,13.78,20.3,65.78,84.72,61.87,6.59-.4,10.59-2.31,12.66-5.33-17.85-17.16-26.4-32.26-31.7-46.64l-65.67-9.9Z"/><path fill="#fad0c9" d="m294.85,312.66c3.45-7.6,10.5-12.56,18.67-14.14-.15-36.03,20.85-60.44,51.86-63.48,33.57-3.29,66.14,19.7,70.16,60.71,4.02,41.01,3.15,74.66-30.42,77.95-18.8,1.84-43.86-6.23-62.98-20.89-10.77,1.3-23.34-.43-31.38-4.07-14.79-6.71-21.92-22.86-15.92-36.08Z"/><path d="m305.01,333.67c2.69-7.54,7.68-14.37,14.06-19.23l-1.46-1.91c-6.74,5.13-12.01,12.35-14.86,20.33l2.26.81Z"/><path fill="none" d="m308.41,324.13c1.85,3.32,3.69,6.64,5.54,9.96"/><rect width="2.4" height="11.39" x="309.98" y="323.42" transform="rotate(-29.1 311.23 329.147)"/><ellipse cx="375.7" cy="298.44" rx="3.82" ry="5.32" transform="rotate(-5.61 375.635 298.386)"/><path fill="#b8c2d8" d="m717.14,728.61v13.31c0,4.22-2.09,8.16-5.59,10.54-2.37,1.62-5.31,3.67-8.32,5.91-1.19.87-2.37,1.77-3.56,2.7,0,0,0,.01-.01.01-5.42,4.23-10.56,8.78-12.75,12.3-5.46,8.73-49.25,29.17-65.96,10.45l-8.97-33.29-.12-.46-1.57-5.8h-15.73c-.07-.1-.12-.2-.19-.3h0c-13.4-22.21-27.63-49.37-33.74-72.45-3.31-12.5-4.24-23.79-1.35-32.44,3.22-9.68,7.69-19.63,12.52-29.04.41-.78.82-1.57,1.23-2.35.1-.2.2-.4.3-.59,7.88-14.94,16.48-28.27,22.16-36.61,0-.01.01-.01.01-.02,2.45-3.61,4.36-6.29,5.42-7.77,0-.01.01-.01.01-.01.53-.74.85-1.16.93-1.26v.02c-.34,2.47-13.08,97.08,24.05,144.92,8.71,11.25,20.19,19.92,35.21,24.19,3.86,1.11,7.96,1.91,12.32,2.39h.01c12.43,1.41,26.88.19,43.7-4.35Z"/><ellipse cx="415.04" cy="293.3" rx="3.82" ry="5.32" transform="rotate(-5.61 414.963 293.254)"/><path d="M416.71 320.64l.63-2.31c-6.62-1.81-12.37-6.27-15.76-12.23-3.4-5.96-4.3-13.18-2.47-19.8l-2.32-.64c-1.99 7.23-1.01 15.11 2.7 21.62 3.71 6.51 9.99 11.38 17.22 13.36zM402.77 340.21l-.15-2.4c-9.74.61-19.8-4.95-24.46-13.52l-2.11 1.15c5.17 9.51 15.91 15.44 26.72 14.77z"/><path d="m409.78,374.22c4.83-.96,9.05-2.65,12.59-5.06l-1.35-1.98c-4.28,2.91-9.67,4.7-16.01,5.32-18.67,1.83-43.64-6.47-62.13-20.65l-.39-.3-.49.06c-10.38,1.25-22.73-.34-30.74-3.97-14.16-6.42-21.03-21.89-15.32-34.49,3.15-6.94,9.59-11.83,17.67-13.43l.13-.03.98-.19v-1c-.14-34.8,19.77-59.23,50.77-62.28l-.24-2.39c-31.96,3.12-52.71,28.09-52.94,63.7-8.47,1.92-15.2,7.21-18.57,14.62-6.26,13.8,1.14,30.7,16.51,37.66,8.24,3.74,20.85,5.42,31.53,4.23,19.19,14.57,44.04,22.74,63.44,20.83,1.57-.15,3.08-.38,4.54-.66Z"/><path fill="#ffcc83" d="m414.52,243.47s-20.8,44.18-78.38,66.49c0,0-19.39-13.1-35.93-7.19,0,0-14.01-59.08,38.05-73.98,38.97-11.15,64.38.99,76.26,14.67Z"/><polygon fill="#b8c2d8" points="422.53 514.61 299.06 393.15 265.33 416.05 350.77 531.58 384.5 504.61 429.46 531.58 422.53 514.61"/><polygon fill="#b8c2d8" points="422.53 514.61 440.05 400.58 457.45 408.41 503.66 482.14 463.09 482.75 429.46 531.58 422.53 514.61"/><polygon points="350.55 533.29 384.59 506.07 413.88 523.63 415.11 521.57 384.4 503.15 350.99 529.86 267.04 416.34 298.92 394.69 353.48 448.37 355.16 446.66 299.2 391.6 263.62 415.75 350.55 533.29"/><polygon points="446.64 508.75 463.73 483.94 505.81 483.3 474.97 434.1 472.93 435.37 501.51 480.97 462.46 481.56 444.67 507.39 446.64 508.75"/><rect width="96.1" height="2.4" x="381.77" y="465.92" transform="rotate(-81.26 429.857 467.124)"/><path d="m460.42,684.96l2.39-.23c-4.98-52.05-14.48-104.02-28.25-154.47l-2.31.63c13.73,50.32,23.21,102.15,28.17,154.07Z"/><path fill="#b8c2d8" d="m109.17,832.7c-8.87,0-17.89-1.77-26.56-5.5-34.07-14.68-49.78-54.18-35.09-88.24l108.6-251.78c14.69-34.05,54.21-49.76,88.28-35.08,34.07,14.68,49.78,54.18,35.09,88.24l-108.6,251.78c-10.95,25.39-35.71,40.58-61.72,40.58Z"/><path fill="#fad0c9" d="m350.96,704.87c-.81.51-1.62,1.01-2.45,1.48l-52.26,37.92-118.74,86.16c-1.8,1.31-3.66,2.52-5.55,3.65-2.62,1.56-5.32,2.95-8.08,4.19-.99.44-1.97.86-2.98,1.25-9.58,3.82-19.86,5.77-30.32,6.12-4.49.16-9.01.02-13.54-.4-1.81-.17-3.63-.38-5.44-.64-1.55-.21-3.09-.46-4.62-.74-35.2-7.7-43.43-22.81-55.45-43.92-.22-.37-.44-.75-.65-1.13-.02-.03-.03-.07-.06-.1-.35-.6-.68-1.21-1-1.82-.03-.04-.06-.09-.08-.13-.27-.5-.53-1.02-.77-1.52-.2-.4-.4-.81-.58-1.22-.12-.25-.24-.49-.35-.74-.25-.53-.48-1.06-.71-1.6-.06-.13-.12-.27-.17-.41-.3-.7-.58-1.42-.85-2.14-.86-2.26-1.59-4.55-2.17-6.87-.2-.78-.38-1.56-.56-2.34-.17-.78-.32-1.58-.47-2.37-.15-.78-.28-1.58-.39-2.37-.09-.6-.17-1.2-.24-1.8-.06-.38-.09-.76-.12-1.14-.04-.31-.07-.64-.09-.96-.04-.41-.07-.83-.1-1.24-.02-.26-.03-.5-.03-.76-.04-.51-.07-1.03-.08-1.56-.21-6.52.55-13.03,2.19-19.3.01-.02.02-.06.03-.1.18-.67.37-1.34.57-2.01.18-.62.37-1.22.57-1.81.25-.77.51-1.54.81-2.31.24-.64.48-1.26.73-1.89.29-.72.59-1.43.92-2.14.86-1.95,1.82-3.86,2.89-5.72,5.75-10.18,14.24-18.98,25.15-25.2l36.13-20.6,1.39-.79,3.31-1.89,5.96-3.4,2.93-1.67,1.49-.85,122.19-69.69,1.14-.65,1.43-.83,30.03-17.12c1.14-.65,2.3-1.26,3.46-1.85,31.65-15.71,70.44-4.19,88.18,26.88,17.92,31.38,7.74,71.1-22.59,90.12Z"/><path fill="#fad0c9" d="M287.22 586.49s33.59-16.79 64.94-30.21c31.35-13.43 55.98-15.67 77.25-20.14 21.27-4.48 17.91 35.81-4.48 40.28s-21.27 26.86-3.36 25.74c17.91-1.12 108.6-47 124.27-13.43 0 0 8.96 11.19-25.75 21.26 0 0 26.87-12.31 27.99-1.12 1.12 11.19-34.71 23.5-34.71 23.5 0 0 7.84 7.83-12.32 16.79-20.15 8.95-50.38 27.98-50.38 27.98l-108.6 30.21s-77.25-3.36-86.21-48.12c-8.96-44.76 31.35-72.74 31.35-72.74zM647.73 445.5s33.59-73.86 51.5-85.05c17.91-11.19 69.41-42.52 80.61-32.45 11.2 10.07-8.96 30.21-25.75 53.71-16.79 23.5 25.75 0 45.9-7.83 20.15-7.83 83.97-31.33 94.05-7.83 0 0 19.03-1.12 21.27 10.07 2.24 11.19-12.32 15.67-12.32 15.67 0 0 34.71 6.71-10.08 24.62 0 0 17.91 8.95-4.48 20.14s-50.38 29.09-50.38 29.09l-64.94 19.02s-61.58 13.43-80.61 0c-19.03-13.43-44.78-39.17-44.78-39.17z"/><path fill="#b8c2d8" d="m164.06,838.27s-.32,1.15-1.87,3.08c-2.47,3.09-8.09,8.19-20.52,13.71-5.69,2.53-16.73,2.47-29.75-.25-33.11-6.92-79-31.04-82.21-73.61-2.3-30.46,3.96-50.29,10.6-62.37,6.28-11.46,12.91-15.96,12.91-15.96l1.25-2.81,5.12-11.53c1.63-3.67,4.96-6.3,8.9-7.05.2-.03.4-.08.62-.11,1.07-.2,2.26-.43,3.53-.65,8.74-1.57,21.55-3.64,32.68-4.51,3.11-.25,6.1-.39,8.82-.41,6.06-.04,10.85.56,12.98,2.22,0,0-.31.51-.88,1.49-.25.43-.54.93-.87,1.51-2.6,4.53-7.74,13.86-13.16,25.84h0c-4.91,10.85-10.05,23.87-13.74,37.42-6.16,22.64-8.27,46.8,1.48,64.95,2.71,5.06,6.35,9.66,11.07,13.61,3.73,3.13,8.13,5.87,13.29,8.14,10.08,4.43,23.05,7.06,39.56,7.31h.2Z"/><path d="M580.49 635.18h-.03c-.62-.02-1.11-.53-1.09-1.15.68-24.22 10.51-49.32 20.92-75.89 1.57-4.01 3.18-8.12 4.77-12.26-12.5 9.63-27.52 31.37-33.13 54.38-.15.6-.75.97-1.35.82-.6-.15-.97-.75-.82-1.35 4.86-19.96 20.05-47.04 37.06-57.82l2.84-1.8-1.19 3.14c-2.01 5.3-4.08 10.59-6.09 15.71-10.34 26.39-20.1 51.31-20.77 75.14-.02.61-.51 1.09-1.12 1.09zM661.9 770c-9.84 0-19.69-1.71-28.95-5.19-.58-.22-.87-.86-.66-1.44.22-.58.86-.87 1.44-.66 22 8.24 47.36 6.3 67.84-5.2.54-.3 1.22-.11 1.52.43.3.54.11 1.22-.43 1.52-12.42 6.97-26.59 10.53-40.77 10.53zM682.37 735.37c-21.8 0-40.55-9.05-56.75-27.28-.41-.46-.37-1.17.09-1.58.46-.41 1.17-.37 1.58.09 23.99 26.97 52.42 33.27 89.5 19.84.58-.21 1.22.09 1.43.67s-.09 1.22-.67 1.43c-12.53 4.54-24.24 6.82-35.18 6.82z"/><path d="M580.88 635.1l29.42 109.17h-2.33l-31.45-116.71-4.72-17.51-38.23-141.88c-.16-.59.2-1.21.79-1.38.17-.04.34-.04.49-.01.41.07.76.37.88.81l34.82 129.2 1.09 4.01 1.69 6.31 4.56 16.89 1.68 6.21v.02l1.31 4.88zM53.41 702.9c-.42 0-.82-.24-1.01-.64-.26-.56-.02-1.23.54-1.49 20.93-9.79 44.2-15.69 67.27-17.07.61-.03 1.15.43 1.18 1.05.04.62-.43 1.15-1.05 1.18-22.8 1.36-45.78 7.19-66.46 16.86-.15.07-.31.1-.47.1zM70.23 682.51c-.49 0-.94-.32-1.08-.82-.17-.6.18-1.21.78-1.38 18.03-5.04 37.23-5.55 55.5-1.49.6.13.98.73.85 1.34s-.73.98-1.34.85c-17.92-3.98-36.74-3.48-54.42 1.46-.1.03-.2.04-.3.04zM172.04 834.05l-5.04 3.98c-1.55 1.21-3.15 2.32-4.8 3.31-7.55 4.54-16.28 6.84-25.78 6.84-6.18 0-12.67-.97-19.38-2.94-1.32-.38-2.66-.81-4.01-1.28-.49-.17-.99-.35-1.47-.53-11.07-4.06-21.06-10.16-30.52-16.96-5.84-4.19-11.48-8.64-17.05-13.04-.48-.38-.56-1.09-.18-1.58.38-.48 1.09-.56 1.57-.18 7.93 6.26 15.99 12.62 24.55 18.17 6.81 4.41 13.94 8.29 21.56 11.17.75.29 1.51.56 2.27.83 5.77 2 11.4 3.27 16.81 3.79 11.29 1.12 21.64-.95 30.32-6.12.07-.04.13-.08.2-.12-9.21 1.15-23.75-.27-38.2-8.14-4-2.17-7.98-4.83-11.86-8.07-4.06-3.41-7.99-7.45-11.67-12.22-.38-.49-.29-1.2.2-1.57.11-.09.25-.16.38-.19.44-.12.91.02 1.19.39 3.11 4.04 6.42 7.53 9.83 10.53 5 4.4 10.23 7.77 15.43 10.29 16.91 8.27 33.33 7.73 39.56 5.65l6-2 .09-.03zM250.27 608.87c-.15 0-.3-.03-.44-.09-.57-.25-.83-.9-.58-1.47l29.11-67.14c.25-.57.9-.83 1.47-.58s.83.9.58 1.47l-29.11 67.14c-.18.42-.59.67-1.03.67zM713.52 436.65c-.46 0-.9-.29-1.06-.75-.2-.58.1-1.22.69-1.43 31.53-11.01 65.52-13.42 98.29-6.95.61.12 1 .71.88 1.31-.12.61-.71 1-1.32.88-32.38-6.39-65.96-4.02-97.11 6.87-.12.04-.25.06-.37.06zM830.22 436.54c-.48 0-.92-.31-1.07-.79-.18-.59.15-1.22.74-1.4l61.58-19.02c.59-.18 1.22.15 1.4.74s-.15 1.22-.74 1.4l-61.58 19.02c-.11.03-.22.05-.33.05zM818.85 414.24l-6-3.6c-.53-.32-.7-1.01-.38-1.54s1-.7 1.54-.38l5.2 3.12 83.52-21.15c.6-.15 1.21.21 1.36.81s-.21 1.21-.81 1.36l-84.42 21.38zM806.58 390.73l-7.09-3.54c-.55-.28-.78-.95-.5-1.5.28-.55.95-.78 1.5-.5l6.35 3.17 83.57-21.16c.6-.15 1.21.21 1.36.81.15.6-.21 1.21-.81 1.36l-84.37 21.36zM426.05 645.8c-.32 0-.64-.14-.86-.4-.4-.48-.33-1.18.14-1.58l6.87-5.72.19-.07 87.33-31.33c.58-.21 1.22.09 1.43.68.21.58-.09 1.22-.68 1.43l-87.14 31.27-6.57 5.47c-.21.17-.46.26-.72.26zM432.77 668.18c-.32 0-.64-.14-.86-.4-.4-.48-.33-1.18.14-1.58l7.01-5.77 77.25-31.33c.57-.23 1.23.04 1.46.62s-.04 1.23-.62 1.46l-77.09 31.27-6.58 5.48c-.21.17-.46.26-.72.26z"/></g><g transform="translate(435.519 148.197) scale(.60044)"><path fill="#ff9996" d="m227.24,229.97l-81.05-7.25s-76.21-83.37-107.67-70.08c-31.45,13.29,4.84,44.71,21.78,54.37,16.94,9.67,56.86,53.17,56.86,53.17l9.68,105.12,100.41,48.33,110.09-37.46-110.09-146.2Z"/><path fill="#ffcc83" d="m190.94,415.17l-21.47,37.51c-2.37,4.14-8.54,3.43-9.91-1.14l-12.01-40.05,27.68-326.28c1.02-11.97,11.55-20.85,23.54-19.84h0c11.98,1.01,20.87,11.54,19.86,23.51l-27.68,326.28Z"/><path fill="#ff9996" d="m88.12,296.43s-20.57-15.71-1.21-31.42c19.36-15.71,41.13-14.5,41.13-14.5,0,0,24.19-1.21,32.66,16.92,8.47,18.12-72.58,29-72.58,29Z"/><path fill="#ff9996" d="m109.9,342.35s-35.08-18.12-27.82-43.5c4.83-16.88,24.12-25.74,36.49-29.78,6.59-2.15,13.53-2.95,20.43-2.35,11.29.99,28.98,3.95,33.81,12.79,7.26,13.29,0,29,0,29l-62.91,33.83Z"/><path fill="#ff9996" d="M149.9 376.41s-48.47-20.77-44.84-32.85 19.36-38.67 42.34-41.08c13.75-1.45 25.34 1 32.43 3.2 5.38 1.67 9.65 5.88 11.24 11.28 1.66 5.64 2.11 12.94-3.75 18.15-10.89 9.67-18.15 9.67-18.15 9.67l-19.28 31.64zM337.33 376.18s-15.73-112.37-22.99-118.41c-4.97-4.14-21.88-27.01-32.03-40.99-5.16-7.11-11.23-13.52-18.07-19.05-10.28-8.32-25.96-21.43-35.4-31.39-9.46-9.98-26.44-5.1-28.7 8.46-1.34 8.01.56 19.47 8.95 35.85 15.12 29.52 16.18 57.47 14.28 76.11-1.68 16.46 2.73 32.95 12.54 46.28l39.72 54.02 61.7-10.87z"/><path d="M161.29 271.95s-.1 0-.14 0c-.66-.08-1.14-.68-1.06-1.34.11-.88-.05-1.75-.48-2.66-8.02-17.16-31.27-16.23-31.51-16.22h-.06s-.06 0-.06 0c-.22 0-21.56-.98-40.3 14.23-.52.42-1.28.34-1.7-.18-.42-.52-.34-1.28.18-1.7 19.19-15.57 40.37-14.85 41.9-14.77 1.47-.05 25.27-.54 33.75 17.61.61 1.31.84 2.64.69 3.97-.07.61-.6 1.07-1.2 1.07zM160.59 360.06c-.21 0-.43-.06-.63-.18-.57-.35-.75-1.09-.4-1.66l8.94-14.67h.68c.06 0 7.02-.19 17.34-9.36 4.41-3.91 5.55-9.6 3.39-16.9-1.47-4.98-5.37-8.9-10.44-10.47-7.15-2.22-18.5-4.57-31.94-3.15-9.6 1.01-28.79 9.73-39.77 36.01-.26.62-.97.91-1.58.65-.62-.26-.91-.96-.65-1.58 5.38-12.86 20.22-35.22 41.75-37.49 13.85-1.45 25.54.96 32.91 3.25 5.84 1.81 10.34 6.33 12.04 12.09 2.41 8.16.99 14.87-4.1 19.39-9.3 8.25-16.09 9.68-18.24 9.92l-8.26 13.56c-.23.37-.63.58-1.03.58z"/><path d="M174.35 305.4c-.11 0-.23-.02-.34-.05-.64-.19-1.01-.86-.82-1.5 1.5-5.14 3.31-15.05-1.44-23.76-4.64-8.49-22.57-11.27-32.85-12.17-6.77-.59-13.48.18-19.95 2.29-11.51 3.76-26.65 10.85-33.38 23.3-.32.59-1.05.81-1.64.49-.59-.32-.81-1.05-.49-1.64 7.11-13.15 22.83-20.55 34.76-24.45 6.78-2.21 13.82-3.02 20.91-2.4 13.15 1.15 29.85 4.42 34.77 13.42 5.17 9.47 3.25 20.1 1.64 25.6-.15.53-.64.87-1.16.87zM235.92 334.25c-.37 0-.74-.17-.98-.49-9.95-13.53-14.48-30.27-12.76-47.12 1.37-13.43 1.37-34.25-6.43-57.2-.22-.63.12-1.32.76-1.53.63-.21 1.32.13 1.53.76 7.93 23.36 7.94 44.55 6.54 58.22-1.66 16.26 2.71 32.39 12.31 45.44.4.54.28 1.29-.26 1.69-.22.16-.47.23-.71.23z"/><path fill="#ff9996" d="m743.19,304.14s-24.46,48.41-103.12,61.41c-78.64,13.01-40.83-37.21-40.83-37.21l12.13-24.14,11.3-22.49,69.51-49.32c-.04.42-.04.83-.04,1.25-.29,26.59,51.06,70.49,51.06,70.49Z"/><path d="m692.18,232.39c-.04.42-.04.83-.04,1.25-6.43,26.73-22.78,62.71-64.41,70.72-6.86,1.32-12.24,1.18-16.35-.16l11.3-22.49,69.51-49.32Z"/><polygon fill="#f2f2f2" points="736.1 292.61 735.81 297.46 734.71 316.26 727.34 441.65 727.18 444.33 727.1 445.94 726.95 448.33 713.88 671.01 555.04 671.01 563.99 502.12 569.58 396.58 572.38 343.58 572.58 339.99 573.46 323.27 580.56 325.15 587.11 326.88 598.21 329.83 637.83 340.32 639.55 340.78 639.62 340.74 640.63 340.24 730.4 295.45 732.57 294.38 736.1 292.61"/><polygon fill="#f90065" points="673 671.01 594.73 671.01 629.75 381.27 644.38 381.27 644.4 381.52 673 671.01"/><polygon fill="#f2f2f2" points="200.63 406.39 334.91 353.22 351.85 387.05 226.03 447.47 200.63 406.39"/><path fill="#ff9996" d="m731.91,210.96c-4.08-7.22-11.49-11.5-19.72-12.35-3.01-35.64-25.93-57.94-56.88-58.23-33.5-.31-63.72,25.27-64.1,66.17-.38,40.9,3.43,74.1,36.94,74.41,18.76.18,42.85-10,60.49-26.17,10.77.34,23.06-2.46,30.69-6.77,14.05-7.93,19.68-24.52,12.59-37.07Z"/><path d="m723.7,232.63c-3.32-7.22-8.86-13.54-15.59-17.78l1.27-2.02c7.12,4.49,12.97,11.16,16.49,18.8l-2.17.99Z"/><rect width="11.31" height="2.38" x="711.54" y="227.47" transform="rotate(-65.99 717.244 228.655)"/><ellipse cx="650.67" cy="203.99" rx="5.28" ry="3.79" transform="rotate(-89.46 650.667 203.984)"/><ellipse cx="611.29" cy="202.35" rx="5.28" ry="3.79" transform="rotate(-89.46 611.288 202.346)"/><path d="M612.03 229.53l-.83-2.23c6.39-2.37 11.69-7.28 14.53-13.48 2.84-6.2 3.1-13.41.71-19.79l2.23-.83c2.61 6.97 2.32 14.85-.78 21.61-3.1 6.77-8.88 12.13-15.87 14.72zM627.55 247.65l-.06-2.38c9.69-.25 19.15-6.63 23.02-15.51l2.19.95c-4.28 9.86-14.38 16.66-25.14 16.94z"/><path d="m628.65,282.16c-.17,0-.34,0-.51,0l.02-2.38c.15,0,.31,0,.47,0,18.56,0,42.28-10.35,59.2-25.86l.36-.33.48.02c10.36.33,22.47-2.33,30.06-6.62,6.54-3.69,11.4-9.42,13.68-16.15,2.27-6.67,1.72-13.53-1.54-19.3-3.74-6.62-10.6-10.91-18.8-11.75l-.98-.1-.08-.98c-2.91-34.42-24.78-56.85-55.7-57.14l.02-2.38c31.96.3,54.62,23.17,57.97,58.35,8.55,1.16,15.68,5.79,19.65,12.83,3.6,6.37,4.21,13.91,1.73,21.24-2.47,7.28-7.71,13.48-14.76,17.45-7.82,4.42-20.12,7.18-30.83,6.94-17.56,15.94-41.17,26.16-60.44,26.16Z"/><polygon fill="#f90065" points="612.97 360.44 630.32 381.52 644.94 381.52 667.48 352.41 639.55 340.77 612.97 360.44"/><polygon fill="#f2f2f2" points="609.2 294.27 639.55 340.77 604.73 403.57 577.93 316.57 609.2 294.27"/><path fill="#b8c2d8" d="m535.73,323.01s-206.18,226.34-223.16,277.05c-15.52,46.35,52.38,74.33,101.58,63.23,29-6.55,52.81-25.33,66.06-49.08l117.29-156.94-61.77-134.25Z"/><polygon fill="#f2f2f2" points="673.52 403.57 639.55 340.77 718.63 276.42 736.09 292.61 673.52 403.57"/><path fill="#b8c2d8" d="m983.62,654.55c-2.14,2.36-4.5,4.51-7.05,6.43-4.04,3.03-8.54,5.46-13.39,7.17-.06.04-.12.06-.19.07-5.17,1.81-10.73,2.79-16.52,2.79h-267.05c2.36-131.54,28.05-269.94,43.66-342.74,1.63-7.61,3.16-14.5,4.52-20.59,1.03-4.53,1.96-8.62,2.81-12.23.21-.89.41-1.76.6-2.6.3-1.32.77-2.55,1.38-3.69,3.44-6.37,11.2-9.55,18.36-6.89l27.99,10.39,27.26,1.11,66.74,2.71,43.25,139.64.1.3,49.61,160.19.91,2.95,17.02,54.98Z"/><path d="m763.03,371.96c-.15,15.14.44,33.08,2.2,54.13l.07.83-38.12,17.4-2.69,1.23,2.6.37,29.45,4.29-.17,1.18c-.25,1.69-16.11,110.29-22.32,219.6h-2.38c5.87-103.64,20.42-206.58,22.17-218.76l-26.89-3.91-10.8-1.57,11.19-5.11,35.45-16.18c-5.69-68.49,1.32-104.04,3.97-117.46.23-1.2.44-2.21.58-3.04l2.35.41c-.15.86-.35,1.88-.59,3.09-1.39,7.1-4.03,20.46-5.32,41.71-.4,6.5-.67,13.75-.74,21.79Z"/><path fill="#b8c2d8" d="m588.5,313.18c-.34,3.24-.81,7.87-1.39,13.7-.42,4.3-.91,9.26-1.44,14.83h0c-.1,1.03-.19,2.07-.29,3.12-1.74,18.76-3.91,43.75-6.06,72.92-1.56,21.31-3.11,44.86-4.48,69.84-3.11,56.81-5.26,121.07-4.43,183.42h-108.77l9.1-42.85,11.01-51.86,44.26-208.44,9.47-44.57h0s.01-.01.01-.01l.3-.08,30.96-8.84,17-5.09c1.27-.39,2.53-.05,3.44.71.9.74,1.44,1.91,1.31,3.21Z"/><polygon points="573.68 340.45 572.38 343.58 559.52 374.73 527.45 452.42 551.81 472.61 525.2 480.03 529.95 547.66 538.6 671.01 536.21 671.01 527.77 550.59 522.69 478.26 546.79 471.55 524.59 453.14 558.17 371.78 571.48 339.54 572.58 339.99 573.68 340.45"/><path d="m689.04,220.12c-.94,1.28-3.01.52-2.86-1.05.69-7.27-.61-14.62,3.42-20.72,3.22-4.86,7.21-14.77,2.23-20.08-3.76-4.01-12.01-2.46-20.1-2.23-24.04.69-68.79,1.24-87.1-22.31-5.61-7.21-11.23-24.19-11.24-33.32-.02-9.13,2.18-18.11,4.36-26.97,18.7,14.05,40.78,23.59,63.84,27.56,14.9,2.57,30.48,2.94,44.24,9.19,13.76,6.24,25.43,20.87,21.93,35.56,10.45-2.76,22.47,2.7,27.26,12.38,4.69,9.48-7.45,26.91-7.45,26.91-6.28-4.18-14.43-6.85-22.33-2.23-6.7,3.91-11.47,10.85-16.19,17.32Z"/><polygon points="604.41 406.6 584.53 342.07 586.81 341.37 605.05 400.55 638.16 340.82 615.31 305.82 617.31 304.52 640.94 340.72 604.41 406.6"/><polygon points="673.5 406.04 638.5 341.34 640.6 340.21 673.54 401.11 705.35 344.7 707.42 345.87 673.5 406.04"/><rect width="213.09" height="2.39" x="397.34" y="470.89" transform="rotate(-78.04 503.85 472.075)"/><path fill="#ff9996" d="m1009.95,215.46l31.96-78.07c2.46-6.01,5.47-11.76,9-17.19,14.34-22.12,52.98-77.5,77.28-72.33,30.3,6.45-29.93,78.7-29.93,78.7,0,0,67.81-61.94,80.44-63.22,12.63-1.29,23.99,19.34-18.94,67.04-42.93,47.7-49.24,47.7-29.04,41.26,20.2-6.45,74.5-52.86,92.18-37.39,17.68,15.47-68.18,70.91-68.18,70.91,0,0,57.23-25,70.58-9,12.1,14.5-28.42,31.38-61.7,47.12-22.99,10.87-21.67,11.18-36.29,25.37-7.67,7.44-15.23,18.86-25.34,21.63-29.92,8.21-91.67-1.12-92.01-74.81Z"/><path fill="#b8c2d8" d="m435.23,518.39c-3.23-2.57-87.01-142.21-87.01-142.21l-129.44,62.83,86.9,173c4.89,13.9,13.59,26.6,25.92,36.41,35.39,28.14,87.28,21.85,115.9-14.06,28.62-35.91,23.12-87.83-12.27-115.97Z"/><path d="m434.56,519.23c-.59-.47-2.39-1.9-58.09-93.22l1.83-1.11c47.82,78.38,56.63,91.71,57.63,92.68l-1.36,1.65Z"/><path fill="#b8c2d8" d="m913.17,338.72c-8.47-12.08-53.23-91.83-116.46-37.86-54.91,46.86-33.04,88.39-8.14,136.95,25.4,49.54,88.31,132.91,88.31,132.91,0,0,74.7,68.03,138.98.2,43.69-46.11-23.61-127.08-23.61-127.08l-79.08-105.11Z"/><path fill="#f9f9f9" d="m959.06,87.43s11.9,67.41,77.11,104.6c65.22,37.19,97.77,74.75,106.13,112.23,0,0,72.76-57.78,106.7-80.64,0,0-.12-64.3-80.75-102.94-67.4-32.3-68.31-89.05-67.64-101.61.05-.98-1.06-1.58-1.85-1-8.77,6.44-43.72,31.99-65.84,46.62-24.95,16.51-73.86,22.74-73.86,22.74Z"/><path fill="#b8c2d8" d="M1015.25 114.18c-1.55 0-3.04-.85-3.78-2.33-1.05-2.09-.21-4.63 1.87-5.68l76.33-38.44c2.09-1.05 4.63-.21 5.69 1.87 1.05 2.09.21 4.63-1.87 5.68l-76.33 38.44c-.61.31-1.26.45-1.9.45zM1029.68 144.43c-1.55 0-3.04-.85-3.78-2.33-1.05-2.09-.21-4.63 1.87-5.68l76.33-38.44c2.09-1.05 4.64-.21 5.69 1.87 1.05 2.09.21 4.63-1.87 5.68l-76.33 38.44c-.61.31-1.26.45-1.9.45zM1045.35 165.02c-1.55 0-3.04-.85-3.78-2.33-1.05-2.09-.21-4.63 1.87-5.68l76.33-38.44c2.09-1.05 4.63-.21 5.69 1.87 1.05 2.09.21 4.63-1.87 5.68l-76.33 38.44c-.61.31-1.26.45-1.9.45zM1076.75 182.03c-1.55 0-3.04-.85-3.78-2.33-1.05-2.09-.21-4.63 1.87-5.68l76.33-38.44c2.09-1.05 4.64-.21 5.69 1.87 1.05 2.09.21 4.63-1.87 5.68l-76.33 38.44c-.61.31-1.26.45-1.9.45zM1100.89 199.01c-1.55 0-3.04-.85-3.78-2.33-1.05-2.09-.21-4.63 1.87-5.68l76.33-38.44c2.09-1.05 4.63-.21 5.69 1.87 1.05 2.09.21 4.63-1.87 5.68l-76.33 38.44c-.61.31-1.26.45-1.9.45zM1138.9 233.65c-1.55 0-3.04-.85-3.78-2.33-1.05-2.09-.21-4.63 1.87-5.68l49.07-24.71c2.09-1.05 4.63-.21 5.69 1.87 1.05 2.09.21 4.63-1.87 5.68l-49.07 24.71c-.61.31-1.26.45-1.9.45zM1103.84 226.3c-1.55 0-3.04-.85-3.78-2.33-1.05-2.09-.21-4.63 1.87-5.68l49.07-24.71c2.09-1.05 4.63-.21 5.69 1.87 1.05 2.09.21 4.63-1.87 5.68l-49.07 24.71c-.61.31-1.26.45-1.9.45z"/><path fill="#ff9996" d="m988.87,257.09s-5.98-60.94,17.01-85.11c17.14-18.02,28.23-28.65,35.27-39.41,6.07-9.28,18.92-11.82,27.78-5.14,4.93,3.72,7.88,9.66,4.7,19.18-8.47,25.37-21.78,56.79-21.78,56.79,0,0,15.73,53.17,3.63,80.96-12.1,27.79-66.68,3.47-66.61-27.26Z"/><polygon fill="#f2f2f2" points="987.09 227.72 1122.2 283.95 1100.42 339.78 972.29 270.35 987.09 227.72"/><path fill="#b8c2d8" d="m977.69,254.54l140.49,50.57-71.84,241.48c-2.19,7.38-5.73,14.28-10.51,20.31-13.73,17.35-60.28,43.26-98.72,21.52-52.48-29.68-48.09-66.08-39.32-95.91,8.77-29.84,79.9-237.98,79.9-237.98Z"/><path d="M902.28 478.89c-.13 0-.25-.02-.38-.06-.64-.21-.98-.89-.77-1.53l35.08-106.33c.21-.63.89-.98 1.53-.77.64.21.98.89.77 1.53l-35.08 106.33c-.17.51-.64.83-1.15.83zM892.6 592.47c-.38 0-.76-.18-1-.52l-96.78-140.16c-.38-.55-.24-1.3.31-1.68.55-.38 1.3-.24 1.68.31l96.78 140.16c.38.55.24 1.3-.31 1.68-.21.14-.45.21-.69.21zM1058.05 233.6c-.59 0-1.11-.43-1.2-1.03-2.39-15.99-6.12-28.71-6.16-28.84l-.12-.41.17-.4c.13-.31 13.39-31.66 21.74-56.7 2.58-7.74 1.14-13.74-4.28-17.83-3.91-2.95-8.78-4.09-13.71-3.24-5.05.88-9.54 3.82-12.33 8.08-5.67 8.66-14.07 17.38-25.69 29.45-3 3.12-6.23 6.47-9.72 10.14-.46.48-1.23.5-1.71.04-.48-.46-.5-1.22-.04-1.71 3.49-3.67 6.72-7.03 9.73-10.15 11.53-11.97 19.86-20.62 25.4-29.09 3.15-4.81 8.23-8.14 13.93-9.14 5.6-.98 11.14.34 15.58 3.69 6.26 4.72 8.03 11.82 5.12 20.53-7.88 23.6-20.08 52.76-21.64 56.48.67 2.34 3.94 14.22 6.11 28.75.1.66-.36 1.27-1.02 1.37-.06 0-.12.01-.18.01z"/></g></svg>