<svg xmlns="http://www.w3.org/2000/svg" viewBox="154 79.877 955.159 845.83"><polygon fill="#f5f8fc" points="571.21 134.23 385.2 131.7 385.2 131.7 385.04 131.7 384.89 131.7 384.89 131.7 198.88 134.23 46.68 652 384.89 652 385.2 652 723.4 652 571.21 134.23" transform="translate(90.608 -63.944) scale(1.35802)"/><g transform="translate(118.64 91.87) scale(.90144)"><polygon fill="#f90065" points="277.16 835.26 277.16 858.74 355.93 867.42 355.93 833.93 277.16 835.26"/><polygon fill="#f90065" points="149.93 855.63 151.78 828.51 257.93 830.42 253.41 871.1 164.8 874.91 149.93 855.63"/><polygon fill="#f2f2f2" points="261.93 456.37 374.36 456.37 374.36 653.77 366.93 846.42 276.93 848.42 280.32 653.77 261.93 456.37"/><polygon fill="#f2f2f2" points="303.43 456.37 284.93 668.67 259.76 855.63 149.93 855.63 163.93 649.42 167.88 451.9 303.43 456.37"/><polygon points="181.96 855.7 180.9 855.57 206.91 653.7 206.91 485.25 207.97 485.25 207.97 653.77 181.96 855.7"/><path fill="#ffcc83" d="m448.11,892.21c-.06,2.23-.62,4.34-1.56,6.21-.55,1.08-1.22,2.09-2.01,3-2.66,3.09-6.59,5.05-10.98,5.07l-157.63.93c-.58-1.85-1.01-3.87-1.32-6-.14-.98-.26-1.98-.36-3-1.46-15.88,2.68-35.7,2.68-35.7v-14.3c16,14,50.75,16.87,74.99-1.67l15.01-.33s56.65,25.43,67,31c6.51,3.5,14.38,7.85,14.18,14.79Z"/><path fill="#f2f2f2" d="M446.55 898.42c-.55 1.08-1.22 2.09-2.01 3h-169.93c-.14-.98-.26-1.98-.36-3h172.3zM336.06 902.42c-.01 1.03-.15 2.04-.44 3h-191.05v-3h191.49z"/><polygon points="265.9 814.02 264.85 813.88 284.9 668.84 296.9 524.87 297.97 524.96 285.97 668.96 265.9 814.02"/><path fill="#f2f2f2" d="m375.45,865.97l-2.17-2.07c4.49-4.71,9.49-8.96,14.86-12.61l1.69,2.48c-5.2,3.54-10.04,7.64-14.38,12.2Z"/><rect width="15.38" height="3" x="385.28" y="860.56" fill="#f2f2f2" transform="rotate(-41.49 392.99 862.07)"/><path fill="#ffcc83" d="m336.06,902.42c-.01,1.03-.15,2.04-.44,3-1.32,4.49-5.79,8-14.93,8h-176.12v-31.79c0-9.21,5.36-7.88,5.36-16.54v-9.46c19,17.79,76.12,15.75,91-.21l18.83.21s44.35,18.49,68.17,32.79c4.78,2.87,8.18,8.69,8.13,14Z"/><path fill="#f2f2f2" d="M398.49 872.09l-2.26-1.97c3.64-4.17 8.32-7.35 13.53-9.2l1.01 2.83c-4.73 1.68-8.98 4.57-12.28 8.35zM275.12 871.89l-2.29-1.94c3.96-4.69 8.99-8.54 14.55-11.14l1.27 2.72c-5.17 2.42-9.85 6-13.53 10.36z"/><rect width="14.18" height="3" x="282.39" y="869.15" fill="#f2f2f2" transform="rotate(-38.39 289.508 870.695)"/><rect width="14.41" height="3" x="293.84" y="873.41" fill="#f2f2f2" transform="rotate(-45 301.038 874.906)"/><path fill="#ff9996" d="m653.93,435.42l-53,31-78.59-34.5c-37.41-22.5-13.41-71.5,24.59-54.5l98,37c3.32,1.68,11.57,18.31,9,21Z"/><polygon fill="#112e5b" points="177.97 218.39 247.95 198.05 307.23 210.73 348.6 235.38 374.36 477.42 156.39 477.42 177.97 218.39"/><path fill="#b8c2d8" d="M307.23 210.73s7.71 61.69 12.71 284.69c0 0-2 20 18 20s33.48-1.25 33.48-1.25c0 0 15.52-1.75 15.52-19.75s-38.33-259.04-38.33-259.04l-41.37-24.65zM177.97 218.39s57.96-23.97 61.96-17.97c6.47 9.7 30 49 34 123s11 184 2 191-101.74 3.51-133-17c-31.26-20.51 35.04-279.03 35.04-279.03z"/><path fill="#ff9996" d="m281.54,227.41c-32.15-5.83-41.61-26.99-41.61-26.99,0,0,14-17,20.31-32.7l9.96,5.89,27.45,16.22,5.6,12.21,3.98,8.69s6.45,22.51-25.69,16.68Z"/><path d="m303.25,202.04c-.79,3.13-3.15,4.81-8.04,3.79-20.21-4.22-28.28-31.41-28.28-31.41l3.27-.81,27.45,16.22,5.6,12.21Z"/><path fill="#ff9996" d="m253.71,150.05c2.62-2.63,6.33-3.6,9.98-2.99,5.54-15.04,18.09-21.96,31.49-18.4,14.5,3.85,24.5,18.5,19.79,36.22-4.7,17.72-10.3,31.61-24.8,27.77-8.12-2.16-17.31-9.42-22.99-18.5-4.69-1.13-9.66-3.81-12.44-6.58-5.12-5.1-5.58-12.94-1.02-17.52Z"/><path d="m254.67,160.39l-.82-.69c2.43-2.88,5.75-5.07,9.36-6.16l.31,1.02c-3.41,1.03-6.55,3.1-8.85,5.83Z"/><path fill="#fff" d="m257.57,156.94l.76,5.01"/><rect width="1.07" height="5.07" x="257.41" y="156.91" transform="rotate(-8.61 257.858 159.417)"/><ellipse cx="289.61" cy="156.7" rx="2.37" ry="1.7" transform="rotate(-75.14 289.583 156.698)"/><ellipse cx="306.8" cy="160.67" rx="2.37" ry="1.7" transform="rotate(-75.14 306.773 160.672)"/><path d="M303.24 172.33c-2.71-1.95-4.56-4.96-5.1-8.25-.53-3.29.28-6.73 2.24-9.43l.87.62c-1.79 2.47-2.54 5.62-2.05 8.64.49 3.01 2.19 5.77 4.67 7.55l-.62.87zM294.77 193.82c-1.5 0-3.09-.22-4.75-.66-8.38-2.22-17.46-9.49-23.19-18.55-4.64-1.16-9.63-3.83-12.48-6.66-5.32-5.3-5.78-13.49-1.02-18.27 2.56-2.57 6.19-3.72 10.01-3.21 5.63-14.81 18.14-22 31.97-18.32l-.27 1.03c-13.39-3.55-25.49 3.54-30.85 18.07l-.15.42-.44-.07c-3.65-.61-7.11.42-9.52 2.84-4.34 4.36-3.88 11.88 1.02 16.76 2.77 2.76 7.67 5.34 12.19 6.44l.21.05.12.18c5.5 8.79 14.62 16.13 22.68 18.27 2.74.73 5.27.82 7.5.27l.25 1.04c-1.04.26-2.14.38-3.28.38z"/><path fill="#b8c2d8" d="M420.93 397.42l-68-60c-59.12-44.36-46-127-4.33-102.04l116.33 102.04c47 41-9 93-44 60zM162.93 230.42l-113.85 136.8c-29.15 46.2 38.85 118.2 100.1 43.01l90.2-124.64c34.55-44.17-44.45-97.17-76.45-55.17z"/><rect width="79.4" height="1.07" x="181.23" y="310.38" transform="rotate(-53.66 220.96 310.937)"/><polygon points="267.91 353.04 251.37 281.38 256.96 271.06 247.66 271.06 247.51 270.82 206.99 209.17 207.89 208.58 248.24 269.99 258.76 269.99 252.5 281.53 268.95 352.8 267.91 353.04"/><path fill="#ff9996" d="m611,470.51h0c3.22-4.39,2.07-10.58-2.51-13.53l-11.29-7.26c-4.51-2.9-10.53-1.47-13.24,3.16l-.25.42c-2.64,4.48-1.15,10.26,3.32,12.91l11.54,6.84c4.18,2.48,9.55,1.38,12.43-2.54Z"/><path d="m603.39,474.92c-1.74,0-3.5-.46-5.1-1.41l-11.54-6.84c-4.72-2.79-6.29-8.91-3.51-13.64l.25-.42c1.39-2.36,3.62-4.01,6.29-4.64,2.67-.64,5.4-.17,7.71,1.31l11.29,7.26c2.34,1.5,3.91,3.84,4.41,6.57.51,2.73-.12,5.48-1.76,7.72-1.95,2.66-4.96,4.09-8.03,4.09Zm-11.28-26.16c-.69,0-1.39.08-2.09.25-2.38.57-4.37,2.04-5.61,4.15l-.25.42c-2.48,4.22-1.07,9.68,3.14,12.18l11.54,6.84c3.96,2.34,9,1.32,11.72-2.4h0c1.47-2,2.03-4.45,1.58-6.89-.45-2.44-1.85-4.53-3.94-5.87l-11.29-7.26c-1.46-.94-3.11-1.42-4.79-1.42Z"/><path fill="#ff9996" d="m628,462.51h0c3.22-4.39,2.07-10.58-2.51-13.53l-11.29-7.26c-4.51-2.9-10.53-1.47-13.24,3.16l-.25.42c-2.64,4.48-1.15,10.26,3.32,12.91l11.54,6.84c4.18,2.48,9.55,1.38,12.43-2.54Z"/><path d="m620.39,466.92c-1.74,0-3.5-.46-5.1-1.41l-11.54-6.84c-4.72-2.79-6.29-8.91-3.51-13.64l.25-.42c1.39-2.36,3.62-4.01,6.29-4.64,2.67-.63,5.4-.17,7.71,1.31l11.29,7.26c2.34,1.5,3.91,3.84,4.41,6.57.51,2.73-.12,5.48-1.76,7.72-1.95,2.66-4.96,4.09-8.03,4.09Zm-11.28-26.16c-.69,0-1.39.08-2.09.25-2.38.57-4.37,2.04-5.61,4.15l-.25.42c-2.48,4.22-1.07,9.68,3.14,12.18l11.54,6.84c3.96,2.35,9,1.32,11.72-2.4h0c1.47-2,2.03-4.45,1.58-6.89-.45-2.44-1.85-4.53-3.94-5.87l-11.29-7.26c-1.46-.94-3.11-1.42-4.79-1.42Z"/><path fill="#ff9996" d="m640,452.51h0c3.22-4.39,2.07-10.58-2.51-13.53l-11.29-7.26c-4.51-2.9-10.53-1.47-13.24,3.16l-.25.42c-2.64,4.48-1.15,10.26,3.32,12.91l11.54,6.84c4.18,2.48,9.55,1.38,12.43-2.54Z"/><path d="m632.39,456.92c-1.74,0-3.5-.46-5.1-1.41l-11.54-6.84c-4.72-2.79-6.29-8.91-3.51-13.64l.25-.42c1.39-2.36,3.62-4.01,6.29-4.64,2.67-.63,5.4-.17,7.71,1.31l11.29,7.26c2.34,1.5,3.91,3.84,4.41,6.57.51,2.73-.12,5.48-1.76,7.72-1.95,2.66-4.96,4.09-8.03,4.09Zm-11.28-26.16c-.69,0-1.39.08-2.09.25-2.38.57-4.37,2.04-5.61,4.15l-.25.42c-2.48,4.22-1.07,9.68,3.14,12.18l11.54,6.84c3.96,2.34,9,1.32,11.72-2.4h0c1.47-2,2.03-4.45,1.58-6.89-.45-2.44-1.85-4.53-3.94-5.87l-11.29-7.26c-1.46-.94-3.11-1.42-4.79-1.42Z"/><path fill="#ff9996" d="m653,441.51h0c3.22-4.39,2.07-10.58-2.51-13.53l-11.29-7.26c-4.51-2.9-10.53-1.47-13.24,3.16l-.25.42c-2.64,4.48-1.15,10.26,3.32,12.91l11.54,6.84c4.18,2.48,9.55,1.38,12.43-2.54Z"/><path d="m645.39,445.92c-1.74,0-3.5-.46-5.1-1.41l-11.54-6.84c-4.72-2.79-6.29-8.91-3.51-13.64l.25-.42c1.39-2.36,3.62-4.01,6.29-4.64,2.67-.64,5.4-.17,7.71,1.31l11.29,7.26c2.34,1.5,3.91,3.84,4.41,6.57.51,2.73-.12,5.48-1.76,7.72-1.95,2.66-4.96,4.09-8.03,4.09Zm-11.28-26.16c-.69,0-1.39.08-2.09.25-2.38.57-4.37,2.04-5.61,4.15l-.25.42c-2.48,4.22-1.07,9.68,3.14,12.18l11.54,6.84c3.96,2.34,9,1.32,11.72-2.4h0c1.47-2,2.03-4.45,1.58-6.89-.45-2.44-1.85-4.53-3.94-5.87l-11.29-7.26c-1.46-.94-3.11-1.42-4.79-1.42Z"/><path fill="#ff9996" d="m546.93,377.42l38.49-2.67c2.92-.21,5.84.53,8.3,2.12l26.81,17.35c2.14,1.38,3.68,3.5,4.33,5.96,1.47,5.56,4.52,15.68,8.07,19.24,5,5,0,16-12,13s-29.04-21.6-29.04-21.6c0,0-33.96,22.6-56.96,5.6l12-39Z"/><path d="m624.85,433.46c-1.24,0-2.59-.16-4.05-.53-11.28-2.82-26.57-18.83-29-21.42-2.06,1.3-12.14,7.41-24.27,10.27l-.24-1.04c13.36-3.14,24.2-10.29,24.31-10.36l.38-.25.31.34c.17.18,17.07,18.51,28.77,21.44,6.46,1.62,10.56-1,12.25-3.99,1.59-2.81,1.29-6.07-.76-8.12-3.63-3.63-6.7-13.76-8.21-19.48-.61-2.33-2.07-4.33-4.1-5.65l.58-.9c2.26,1.46,3.87,3.69,4.56,6.28,1.48,5.61,4.48,15.54,7.93,19,2.39,2.39,2.76,6.17.93,9.4-1.49,2.64-4.64,5.03-9.39,5.03Z"/><polygon points="328.97 369.93 327.9 369.91 329.89 275.21 319.6 268.83 328.8 264.62 318.42 226.56 319.45 226.28 330.07 265.21 321.86 268.97 330.97 274.62 330.97 274.93 328.97 369.93"/><path fill="#e5ac63" d="m171.86,418.32h147v9h-142.7c-2.37,0-4.3-1.93-4.3-4.3v-4.7h0Z" transform="rotate(14.86 245.404 422.964)"/><path fill="#e5ac63" d="m240.96,312.7l1.38-5.21c.54-2.03-.67-4.12-2.7-4.66l-32.27-8.56c-2.03-.54-4.12.67-4.66,2.7l-2.36,8.89-24.93,93.94c-.54,2.03.67,4.12,2.7,4.66l126.02,33.45c2.03.54,4.12-.67,4.66-2.7l23.96-90.26c.54-2.03-.67-4.12-2.7-4.66l-86.39-22.93c-2.03-.54-3.24-2.62-2.7-4.66Z"/><rect width="139" height="106" x="188.36" y="318.82" fill="#f2f2f2" transform="rotate(14.86 257.938 371.965)"/><rect width="140" height="106" x="189.76" y="321.4" fill="#e5e4e3" transform="rotate(14.86 259.831 374.525)"/><rect width="139" height="104" x="192.42" y="324" fill="#f2f2f2" transform="rotate(14.86 261.988 376.116)"/><path fill="#ffcc83" d="m250.31,320.36l1.38-5.21c.54-2.03-.67-4.12-2.7-4.66l-32.27-8.56c-2.03-.54-4.12.67-4.66,2.7l-2.36,8.89-24.93,93.94c-.54,2.03.67,4.12,2.7,4.66l126.02,33.45c2.03.54,4.12-.67,4.66-2.7l23.96-90.26c.54-2.03-.67-4.12-2.7-4.66l-86.39-22.93c-2.03-.54-3.24-2.62-2.7-4.66Z"/><path fill="#ff9996" d="m235.93,379.42s27-14,49-12,39,9,51,9,14,8,11,13-8,7-8,7c0,0,13,5,4,20,0,0,1,13-8,17,0,0,3,10-5,18,0,0,4,18-9,20s-95-17-95-17c-25-4-36-61,10-75Z"/><path fill="#ff9996" d="m258.93,379.42l-10.68,79.98-19.92-1.81-19.37-1.75-15.11-1.37-121.92-11.05c-46-6-47-100,22-94l114.79,20.87,12.61,2.29,19.27,3.51,18.33,3.33Z"/><path fill="#f2f2f2" d="m228.33,457.59l-19.37-1.75-15.11-1.37c8.36-14.77,20.83-44.6,14.87-84.18l12.61,2.29,19.27,3.51c1.94,17.51,4.02,56.93-12.27,81.5Z"/><path fill="#b8c2d8" d="m208.96,455.84l-15.11-1.37-121.92-11.05c-46-6-47-100,22-94l114.79,20.87,12.61,2.29c1.29,14.98,3.33,57.84-12.37,83.26Z"/><path fill="#ff9996" d="m531.34,436.92l-7.88-2.52-12.97-4.14-16.51-5.28-58.05-18.56c-55-21-16-89,29-69l62.95,30.46,6.89,3.33,12.73,6.16,10.43,5.05c34,14,22,71-26.59,54.5Z"/><path fill="#f2f2f2" d="m547.5,377.37c-.95,12.14-5.26,36.87-24.04,57.03l-12.97-4.14-16.51-5.28,33.9-57.1,6.89,3.33,12.73,6.16Z"/><path fill="#b8c2d8" d="m534.77,371.21c-.8,11.86-4.84,37.81-24.28,59.05l-16.51-5.28-58.05-18.56c-55-21-16-89,29-69l62.95,30.46,6.89,3.33Z"/><rect width="1.07" height="119.68" x="180.9" y="306.08" transform="rotate(-80.38 181.433 365.918)"/><rect width="1.07" height="109.37" x="149.4" y="395.73" transform="rotate(-85.28 149.936 450.416)"/><rect width="1.07" height="91.08" x="359.9" y="263.38" transform="rotate(-8.84 360.498 308.977)"/><path d="M212.52 274.59c-6.94-17.71-16.84-33.93-29.41-48.2l.8-.71c12.66 14.36 22.62 30.69 29.61 48.51l-.99.39zM319.59 398.66c-4.96 0-8.82-.19-9.18-.21l.05-1.07c.2 0 20.01.97 28.32-1.48l.3 1.02c-4.79 1.41-13.06 1.73-19.5 1.73z"/><rect width="18.49" height="1.07" x="324.56" y="417.37" transform="rotate(-9.26 333.632 417.723)"/><rect width="13.73" height="1.07" x="322.32" y="434.13" transform="rotate(-10.53 329.193 434.658)"/><rect width="13.73" height="1.07" x="315.32" y="452.13" transform="rotate(-10.53 322.17 452.67)"/><path d="m294.13,178.4c-4.61-1.4-8.16-5.54-8.83-10.31l1.06-.15c.61,4.3,3.94,8.18,8.09,9.44l-.31,1.02Z"/><path fill="#112e5b" d="m258.33,147.33s7.61-.91,8.61,9.09c0,0,3-25,11-23s15.59,10.44,25,11,15-3,14-10-5.28-19.46-22.65-20c-18.21-.57-29.9,6.18-37.35,10-8.06,4.13-21,1-21,1,1.41,9.85,7.2,20.31,14.73,31,0,0-.94-6.18,7.67-9.09Z"/><path d="M289.58 228.91c-29.72-1.54-46.61-22.23-46.77-22.44l.83-.67c.16.21 16.77 20.53 45.99 22.04l-.05 1.07zM293.1 239.9c-2.76 0-5.96-.3-9.66-.97l.19-1.05c13.93 2.53 22.56-.02 24.94-7.38l1.02.33c-1.43 4.42-5.54 9.07-16.48 9.07z"/></g><g transform="translate(611.413 167.782) scale(.90213)"><path fill="#f90065" d="m291.44,99.69c-3.62-3.34-9.23-4.33-13.76-2.42-2.64,1.11-4.83,3.06-7.3,4.51-2.47,1.45-5.54,2.4-8.18,1.28-3.22-1.37-4.57-5.38-4.12-8.84.45-3.47,2.27-6.57,3.8-9.72s2.83-6.64,2.13-10.07c-1.22-6.03-8.27-10.37-7.5-16.47.6-4.8,5.84-7.74,7.34-12.34.91-2.79.32-5.81.18-8.74-.15-2.93.35-6.24,2.7-8,3.08-2.31,7.43-.74,11.28-.95,10.14-.54,15.86-13.34,25.87-15.07,5.76-.99,11.98,2.49,14.14,7.92,2.11,5.31.51,11.27.32,16.98-.38,11.39,4.98,22.44,4.28,33.81-.86,13.99-11.98,26.7-25.73,29.41"/><polygon points="233.88 525.39 226.52 482.12 172.29 469.87 146.59 505.13 136.89 498.06 167.24 456.43 237.01 472.18 245.71 523.37 233.88 525.39"/><path fill="#b8c2d8" d="m230.82,653.57l-140-27.35c-14.44-2.82-22.56-18.29-16.67-31.78l34.87-79.87c5.25-12.03,18.16-18.8,31.04-16.28l93.3,18.23c12.88,2.52,22.29,13.65,22.63,26.77l2.24,87.12c.38,14.71-12.96,25.99-27.4,23.17Z"/><rect width="1.07" height="167" x="173.23" y="490.15" transform="rotate(-78.95 173.735 573.631)"/><rect width="20" height="26" x="163.48" y="562.12" fill="#ffcc83" rx="5.32" ry="5.32" transform="rotate(11.05 173.514 575.341)"/><rect width="18" height="1.07" x="155.06" y="573.26" transform="rotate(-78.94 164.034 573.773)"/><path fill="#ff9996" d="m188.76,385.15l-.02.02c9.2,4.94,14.54,17.33,16.02,26.98,1,6,0,13-4,18-9,11-24,12-36,19-5.85,3.9-5.06,12.55-8.73,19.47l84.73,13.53-6.21-60c7.21-37-24.79-51-45.79-37Z"/><path fill="#ff9996" d="m197.34,371.16l-8.58,13.99c-16,29,28,54,45.79,37l15.21-18-52.42-32.99Z"/><polygon fill="#ff9996" points="197.34 371.16 239.76 401.15 263.5 365.15 210.93 342.7 197.34 371.16"/><path fill="#ff9996" d="M179.73 470.21s14.96-17.43 22.7-14.01 7.39 16.76 4.25 24.34c-3.14 7.58-11.99 21.26-21.94 16.7s-14.44-17.58-5.01-27.03zM216.73 480.21s14.96-17.43 22.7-14.01 7.39 16.76 4.25 24.34c-3.14 7.58-11.99 21.26-21.94 16.7s-14.44-17.58-5.01-27.03z"/><path fill="#ff9996" d="M157.73 463.21s14.96-17.43 22.7-14.01 7.39 16.76 4.25 24.34c-3.14 7.58-11.99 21.26-21.94 16.7s-14.44-17.58-5.01-27.03zM199.73 475.21s14.96-17.43 22.7-14.01 7.39 16.76 4.25 24.34c-3.14 7.58-11.99 21.26-21.94 16.7s-14.44-17.58-5.01-27.03z"/><path d="m188.79,498.69c-1.44,0-2.87-.32-4.28-.97-4.49-2.06-7.97-5.83-9.57-10.35l1.01-.36c1.5,4.25,4.78,7.79,9.01,9.73,3.65,1.67,7.48.91,11.37-2.29l.68.83c-2.76,2.27-5.51,3.41-8.22,3.41Z"/><path d="M197.01 495.29l-.68-.82c4.46-3.66 8.01-9.7 9.85-14.12 3.2-7.73 3.24-20.46-3.97-23.65-4.06-1.8-10.45 2.73-15.1 6.85l-.71-.8c7.1-6.29 12.56-8.65 16.24-7.03 3.63 1.61 5.95 5.53 6.52 11.04.47 4.53-.29 9.89-1.99 13.99-1.89 4.55-5.54 10.75-10.15 14.54zM225.77 508.68c-1.44 0-2.86-.32-4.26-.96-2.95-1.35-5.49-3.45-7.35-6.07l.87-.62c1.75 2.47 4.14 4.44 6.92 5.71 2.37 1.09 4.84 1.14 7.33.16 6.61-2.59 11.84-11.64 13.88-16.58 3.2-7.73 3.24-20.46-3.97-23.65-2.45-1.08-6.03.02-10.63 3.28l-.62-.87c4.93-3.49 8.86-4.63 11.68-3.38 3.63 1.61 5.95 5.53 6.52 11.04.47 4.53-.29 9.89-1.99 13.99-2.11 5.09-7.54 14.44-14.48 17.16-1.31.51-2.62.77-3.91.77z"/><path d="m166.77,491.68c-1.44,0-2.86-.32-4.26-.96-7.48-3.43-11.76-11.41-10.17-18.99l1.04.22c-1.49,7.09,2.54,14.57,9.57,17.8,2.37,1.09,4.84,1.14,7.33.16,6.61-2.59,11.84-11.64,13.88-16.58,1.22-2.94,1.97-6.66,2.04-10.21l1.07.02c-.08,3.67-.86,7.53-2.13,10.59-2.11,5.09-7.54,14.44-14.48,17.16-1.31.51-2.62.77-3.91.77Z"/><path d="M187.29 463.16l-1.07-.02c.07-3.21-.37-10.95-6.01-13.44l.43-.98c4.39 1.94 6.81 7.2 6.65 14.44zM208.77 503.68c-1.44 0-2.86-.32-4.26-.96-3.49-1.6-6.44-4.29-8.31-7.58l.93-.53c1.76 3.1 4.54 5.63 7.83 7.14 2.37 1.09 4.84 1.14 7.33.16 6.61-2.59 11.84-11.64 13.88-16.58 3.2-7.73 3.24-20.46-3.97-23.65-2.96-1.31-7.7.64-13.69 5.64l-.68-.82c6.41-5.36 11.4-7.31 14.81-5.8 3.63 1.61 5.95 5.53 6.52 11.04.47 4.53-.29 9.89-1.99 13.99-2.11 5.09-7.54 14.44-14.48 17.16-1.31.51-2.62.77-3.91.77z"/><path fill="#ff9996" d="m164.76,449.15c12-7,27-8,36-19,4-5,5-12,4-18-1.48-9.65-6.83-22.04-16.02-26.98l-39.68,33.15c-3.03,2.53-5.38,5.78-6.83,9.44-2.99,7.54-8.08,20.54-9.46,25.39-2,7-8,23.9-8,23.9,0,0,4,9.1,15,4.1,11-5,15-13,15-13l1.27.47c3.67-6.92,2.87-15.57,8.73-19.47Z"/><path d="m155.74,468.9l-.94-.5c1.32-2.48,2.16-5.23,2.97-7.88,1.46-4.75,2.83-9.23,6.7-11.81,4.48-2.62,9.39-4.41,14.13-6.14,8.31-3.04,16.16-5.91,21.76-12.75l.83.68c-5.78,7.07-14.14,10.12-22.22,13.08-4.7,1.72-9.55,3.5-13.93,6.05-3.53,2.35-4.85,6.66-6.25,11.22-.83,2.7-1.69,5.49-3.05,8.07Z"/><path fill="#f90065" d="m383.15,820.17c0,9.93-8.05,17.98-17.98,17.98l-173.93,2c-3.04,0-5.76-1.95-6.68-4.85-.41-1.3-.71-2.72-.78-4.24-.3-5.57,2.41-12.41,13.98-18.91,37.93-21.29,60.37-39.05,71.13-48.54,5-4.41,7.69-10.87,7.32-17.53l-.45-7.93,41.51-4.24,40.33-4.11,16.16-1.65,8.16,79.99,1.23,12.03Z"/><path fill="#f2f2f2" d="m382.83,391.15l13.94,125,62.15,89.4c-.15-.4-49.15,74.6-49.15,74.6l-105.8-98.54-14.2-193.46,93.06,3Z"/><polygon points="433.17 639.58 323.98 534.38 323.98 534.16 319.4 366.92 320.47 366.89 325.04 533.92 433.91 638.82 433.17 639.58"/><path fill="#f2f2f2" d="M358.89 755.35c0 9.63-7.13 17.88-16.78 19.18-4.64.63-9.11-.44-12.8-2.73-2.54-1.58-4.7-3.73-6.29-6.31-.02-.03-.04-.07-.06-.11-.08-.13-.16-.26-.23-.39s-.14-.26-.21-.38c-.78-1.42-1.38-2.96-1.77-4.59-.09-.34-.16-.65-.22-.92-.01-.02-.01-.04-.01-.05-.03-.11-.05-.21-.06-.32-.01-.02-.01-.05-.01-.07-.04-.2-.07-.39-.1-.59 0-.1-.03-.19-.04-.29l-3.04-23.87 40.33-4.11 1.26 24.56c.02.33.03.66.03.99zM383.15 820.17c0 9.93-8.05 17.98-17.98 17.98l-173.93 2c-3.04 0-5.76-1.95-6.68-4.85-.41-1.3-.71-2.72-.78-4.24l117.78-3.63c2.89-.09 5.67-.87 8.12-2.24 2.46-1.36 4.59-3.3 6.19-5.7 3.09-4.63 8.15-7.55 13.69-7.92l52.36-3.43 1.23 12.03z"/><path d="m340.67,775.1c-19.06,0-20.88-17.09-20.9-17.27l-3.65-23.63,1.05-.16,3.66,23.66c.07.73,1.84,17.15,21.25,16.3l.05,1.07c-.5.02-.99.03-1.46.03Z"/><rect width="52.09" height="1.07" x="329.22" y="809.62" transform="rotate(-3.25 355.2 810.002)"/><path fill="#f2f2f2" d="m223.76,354.15l29,197,23,187s98.7-9.62,98-10l-10-151,4-138.61s21-9.66,23-78.39l-167-6Z"/><polygon points="311.28 734.64 298.73 546.68 292.73 367.67 293.8 367.63 299.8 546.63 312.34 734.57 311.28 734.64"/><path d="M294.48 405.52c-38.83-2.67-36.85-41.53-36.83-41.93l1.07.07c0 .1-.54 9.7 3.61 19.47 5.55 13.06 16.39 20.23 32.23 21.32l-.07 1.06zM367.42 438.95l-10.03-8.37c-8.95-7.47-14.09-18.45-14.09-30.11v-21.15l46.45-2.49.06 1.07-45.44 2.44v20.14c0 11.34 4.99 22.02 13.7 29.29l10.03 8.37-.68.82z"/><path fill="#ff9996" d="m119.76,361.15l-58.57,28.8c-1.81.89-3.85,1.19-5.83.85-4.55-.78-12.21-3.32-13.6-11.66,0,0-14,0-15-12,0,0-19,3-22-11,0,0-20-8-10-20,14.21-17.06,94.91-40.48,94.91-40.48,40.09-10.52,65.09,40.48,30.09,65.48Z"/><path fill="#ff9996" d="m264.76,342.15l-68.67,9-76.33,10c-34,7-65-58-23-68l81.25-19.73.33-.08,58.42-14.19c72-18,83,68,28,83Z"/><path fill="#ffcc83" d="m264.76,342.15l-68.67,9c7.05-29.27.88-55.14-18.08-77.73l.33-.08,58.42-14.19c72-18,83,68,28,83Z"/><path fill="#ff9996" d="m343.76,112.15s-25.85,14.17-58,20c-32.14,5.83-1-16-1-16l2.99-13.48,3.01-13.52,24.97-12.69,7.18-3.64c-.8,11.86,20.85,39.33,20.85,39.33Z"/><path d="m315.73,76.46c-.23,3.92-2.37,23.28-22.1,26.44-2.56.41-4.48.3-5.88-.23l3.01-13.52,24.97-12.69Z"/><path fill="#ff9996" d="m333.52,60c-2.16-3.02-5.67-4.57-9.37-4.56-3.05-15.74-14.33-24.58-28.12-23.22-14.93,1.47-27.15,14.32-25.36,32.57,1.79,18.25,5.09,32.86,20.02,31.39,8.36-.82,18.59-6.51,25.67-14.56,4.81-.36,10.15-2.2,13.34-4.49,5.87-4.21,7.58-11.87,3.82-17.12Z"/><path d="m330.9,70.05c-1.83-3.06-4.6-5.61-7.8-7.18l.47-.96c3.38,1.66,6.31,4.35,8.24,7.59l-.92.55Z"/><path fill="#fff" d="m328.6,66.19c-.52,1.61-1.04,3.22-1.56,4.82"/><rect width="5.07" height="1.07" x="325.28" y="68.06" transform="rotate(-72.2 327.798 68.606)"/><ellipse cx="294.01" cy="61.79" rx="1.7" ry="2.37" transform="rotate(-5.61 294.14 61.774)"/><ellipse cx="276.41" cy="62.95" rx="1.7" ry="2.37" transform="rotate(-5.61 276.487 62.955)"/><path d="M278.04 75.03l-.48-.96c2.73-1.36 4.85-3.81 5.82-6.7s.74-6.12-.63-8.85l.96-.48c1.49 2.98 1.75 6.51.69 9.67-1.06 3.16-3.37 5.83-6.36 7.32zM285.82 82.36l-.14-1.06c4.3-.58 8.21-3.87 9.5-8.02l1.02.32c-1.43 4.6-5.6 8.12-10.38 8.76z"/><path d="m288.7,96.81c-2.19,0-4.18-.37-5.93-1.12l.42-.98c2.12.9,4.63,1.22,7.45.94,8.3-.82,18.48-6.6,25.32-14.39l.14-.16.22-.02c4.64-.35,9.89-2.12,13.07-4.39,5.62-4.03,7.28-11.38,3.7-16.38-1.98-2.76-5.21-4.33-8.87-4.33h-.5s-.08-.43-.08-.43c-2.95-15.2-13.76-24.15-27.54-22.79l-.1-1.06c14.23-1.41,25.43,7.7,28.61,23.22,3.86.11,7.26,1.83,9.37,4.78,3.93,5.48,2.16,13.5-3.95,17.87-3.27,2.34-8.63,4.17-13.39,4.57-7.11,8.02-17.25,13.73-25.88,14.58-.7.07-1.38.1-2.04.1Z"/><path fill="#ffcc83" d="m394.76,350.15v4c0,4.55-3.46,8.34-7.99,8.73-30.29,2.63-137.6,10.68-165.01-4.73,0,0,16-124,34-194,0,0,10-39,53.49-53.35,38.24-12.63,48.88,5.62,56.51,22.35,3.47,7.61,6.98,17.25,10.34,28.26,3.23,10.57,6.32,22.41,9.14,34.95,0,0,0,.01.01.01.6,2.7,1.2,5.43,1.77,8.19,10.89,51.76,16.72,112.87,7.74,145.59Z"/><path fill="#b8c2d8" d="m385.24,196.36c-2.82-12.54-5.91-24.38-9.14-34.95l-53.44,8.46-2.73,37.22,10.83-1.78,54.49-8.94h-.01Z"/><path fill="#f2f2f2" d="m385.24,196.36l-54.48,8.79v.16l-.21,7.62,56.47-8.37c-.57-2.76-1.17-5.49-1.77-8.19h-.01Z"/><path fill="#ffcc83" d="m338.4,168.76c-.83,11.87-2.28,24.65-4.08,37.51-.32,2.35-.66,4.7-1.01,7.05-7.5,50.37-19.55,99.83-19.55,99.83-7,42-102,20-97-18,0,0,10.12-49.49,23.79-95.03.64-2.15,1.29-4.29,1.95-6.41,4.18-13.46,8.65-26.34,13.23-37.21,5.61-13.33,11.39-23.65,17.03-28.35,26.36-21.98,65-5,66,9,.66,9.16.45,19.95-.36,31.61Z"/><path fill="#b8c2d8" d="m338.4,168.76c-.83,11.87-2.28,24.65-4.08,37.51l-91.82-12.56c4.18-13.46,8.65-26.34,13.23-37.21l82.67,12.26Z"/><path fill="#f2f2f2" d="m334.32,206.27c-.32,2.35-.66,4.7-1.01,7.05l-92.76-13.2c.64-2.15,1.29-4.29,1.95-6.41l91.82,12.56Z"/><path fill="#ff9996" d="m76.49,302.04l-52.16,6.36c-4.42.54-7.95,3.93-8.68,8.32l-1.89,11.43,62.72-26.1Z"/><path d="M312.33 319.7l-1.03-.27c9.71-37.65 17.77-81.16 25.39-136.95l1.06.14c-7.62 55.83-15.69 99.38-25.41 137.07zM18.46 322.15l-.39-.99c30.85-12.27 54.09-20.78 71.04-26.01l.31 1.02c-16.92 5.23-40.13 13.73-70.96 25.99z"/><rect width="34.54" height="1.07" x="3.99" y="348.62" transform="rotate(-22.15 21.274 349.174)"/><rect width="24.7" height="1.07" x="25.42" y="361.62" transform="rotate(-21.35 37.779 362.196)"/><rect width="15.23" height="1.07" x="41.65" y="376.12" transform="rotate(-23.18 49.28 376.728)"/><rect width="129.12" height="1.07" x="155.7" y="347.62" transform="rotate(-7.57 220.186 348.033)"/><path fill="#f90065" d="M286.79 47.7c2.92-1.67 5.05-4.67 8.25-5.75 4.32-1.45 9.3 1.48 11.03 5.7s.65 9.19-1.82 13.02c-1.56 2.41-3.74 4.8-3.56 7.66.27 4.29 5.57 6.57 6.85 10.68.82 2.65-.21 5.53-1.59 7.93-1.39 2.41-3.16 4.64-4 7.28-.84 2.65-.48 5.96 1.77 7.59 2.38 1.72 5.83.83 8.12-.99 2.3-1.82 3.85-4.4 5.86-6.54 2.79-2.97 6.48-5.07 10.46-5.96 3.99-.89 8.8-.91 11.13-4.27 1.81-2.62 1.24-6.17 2.13-9.22 1.15-3.93 4.61-6.68 6.73-10.18 3.39-5.6 2.96-13.26-1.04-18.44-4.8-6.22-13.3-8.2-19.36-13.22-1.71-1.42-3.27-3.11-5.31-3.99-3.01-1.29-6.45-.57-9.72-.51-4.81.09-9.55-1.29-14.36-1.38-8.81-.18-17.18 4.16-23.15 10.45-3.33 3.51-4.76 6.31-.12 9.41 3.39 2.27 8.1 2.79 11.72.72zM548.94 693.37c-17.34 26.17-55.67 83.7-70.18 102.78-14.53 19.12-27.3 27.71-32.96 22.93-1.74-1.46-2.81-4.19-3.04-8.28-.71-12.39-.4-58.99-.17-84.57.1-10.86-4.53-21.22-12.69-28.39l-20.14-17.69 15.29-23.21 23.38-35.48 10.48-15.91 80.24 60.61h.02s5.88 4.45 5.88 4.45c7.1 5.37 8.81 15.33 3.89 22.76z"/><path d="m373.23,728.18l-10-151,4.01-138.99.3-.14s4.84-2.35,9.97-12.14c4.75-9.06,10.76-26.53,12.42-58.31l1.07.06c-3.04,58.11-20.12,69.77-22.71,71.21l-3.99,138.3,10,150.95-1.06.07Z"/><path fill="#f2f2f2" d="M484.87 661.12c0 4.02-1.17 8.09-3.61 11.68-6.76 9.93-20.52 12.07-29.98 4.67l-26.23-20.53 23.38-35.48 26.89 22.15c6.19 3.98 9.55 10.68 9.55 17.51zM548.94 693.37c-17.34 26.17-55.67 83.7-70.18 102.78-14.53 19.12-27.3 27.71-32.96 22.93l67.96-93.18c2.28-3.12 4.02-6.57 5.21-10.2 1.18-3.63 1.79-7.44 1.79-11.3 0-7.33 2.21-14.49 6.34-20.55l12.05-17.69h.02s5.88 4.45 5.88 4.45c7.1 5.37 8.81 15.33 3.89 22.76z"/><path d="m425.34,656.49l26.27,20.56c.64.49,15.74,11.95,29.24-4.59l.83.68c-5.8,7.1-11.97,9.21-17.25,9.21-7.62,0-13.38-4.39-13.48-4.46l-26.19-20.51.58-.89Z"/><rect width="25.81" height="1.07" x="518.86" y="676.62" transform="rotate(-54.45 531.773 677.148)"/><polygon points="433.11 569.36 395.75 516.85 383.73 410.71 384.79 410.59 396.78 516.45 433.98 568.75 433.11 569.36"/><rect width="1.07" height="242.99" x="241.53" y="361.26" transform="rotate(-8.08 242.089 482.821)"/><rect width="74.22" height="1.07" x="163.16" y="267.12" transform="rotate(-14.09 200.207 267.589)"/><line x1="551.26" x2="505.26" y1="688.65" y2="758.65" fill="#f2f2f2"/><rect width="109.29" height="1.07" x="463.62" y="738.12" transform="rotate(-55.44 518.224 738.625)"/><path d="m339.31,353.25c-6.73,0-13.46-.15-20.16-.44l.05-1.07c24.15,1.06,48.57.2,72.59-2.54l.12,1.06c-17.41,1.99-35.03,2.99-52.6,2.99Z"/><rect width="9.39" height="1.07" x="228.16" y="355.12" transform="rotate(-70.67 232.86 355.65)"/><rect width="8.32" height="1.07" x="239.86" y="357.94" transform="rotate(-65.69 243.992 358.461)"/><rect width="8.73" height="1.07" x="251.75" y="357.33" transform="rotate(-66.06 256.113 357.864)"/><rect width="7.65" height="1.07" x="264.14" y="359.35" transform="rotate(-79.68 267.941 359.873)"/><rect width="1.07" height="7.97" x="279.95" y="356.54"/><path d="m292.7,118.06l-.51-.94c.08-.05,8.55-4.61,19.31-7.93,9.98-3.08,24.04-5.69,34.34-.64l-.47.96c-19.18-9.39-52.34,8.37-52.68,8.55Z"/></g><g transform="translate(484.297 52.778) scale(1.07324)"><path fill="#f2f2f2" d="m229.15,25.25H39.15c9.49,53.03,10.22,110.25,4.78,170.43-13.6-1.1-27.52-2.56-41.78-4.43-.96,31.22,9.04,46.88,30,47h179.79c9.9,0,18.25-7.41,19.44-17.24,8.66-71.49,9.28-137.65-2.23-195.76Z"/><path d="M32.14 238.75c-8.52-.05-15.36-2.68-20.31-7.82-7.34-7.61-10.76-20.96-10.18-39.7l.02-.55.55.07c70.58 9.25 134.97 9.25 196.86 0l.55-.08.03.55c.52 11.19 4.11 22.34 10.09 31.41l-.83.55c-5.98-9.07-9.61-20.18-10.23-31.36-61.65 9.16-125.79 9.16-196.04 0-.49 18.16 2.85 31.08 9.92 38.42 4.76 4.94 11.36 7.47 19.6 7.51v1zM237.72 137.18l-1-.06c3.03-49.47-7.96-110.17-8.07-110.78l.98-.18c.11.61 11.12 61.43 8.08 111.02z"/><circle cx="86.65" cy="85.75" r="15.5" fill="#f90065"/><circle cx="86.65" cy="85.75" r="9.56" fill="#ffcc83"/><rect width="37" height="3.48" x="174.15" y="81.25" fill="#b8c2d8"/><rect width="37" height="3.48" x="174.15" y="87.51" fill="#b8c2d8"/><rect width="37" height="3.48" x="174.15" y="93.77" fill="#b8c2d8"/><rect width="134" height="4" x="77.15" y="114.25" fill="#b8c2d8"/><rect width="134" height="4" x="77.15" y="123.25" fill="#b8c2d8"/><rect width="134" height="4" x="77.15" y="132.25" fill="#b8c2d8"/><rect width="134" height="4" x="77.15" y="141.25" fill="#b8c2d8"/><rect width="134" height="4" x="77.15" y="150.25" fill="#b8c2d8"/><path d="M94.27 184.68c-2.54 0-4.97-.85-6.93-2.43-.32.13-.65.24-.98.35-4.42 1.42-9.09.76-12.82-1.81l.57-.82c3.48 2.39 7.83 3 11.95 1.68.15-.05.3-.1.44-.15-.3-.3-.59-.61-.86-.95-2.97-3.66-3.42-8.58-1.17-12.83 1.54-2.82 4.91-5.2 8.12-4.04 1.47.55 2.58 1.63 3.23 3.13.87 2.02.84 4.65-.1 6.88-1.29 3.57-3.92 6.44-7.35 8.11 2.49 1.83 5.66 2.38 8.88 1.47 2.95-.93 5.35-3.44 6.33-6.36-.45-.06-.88-.19-1.29-.4-.84-.45-1.45-1.31-1.59-2.24-.12-.79.11-1.53.65-2.08.73-.74 1.91-.89 2.75-.33.85.55.96 1.44.96 2.23 0 .59-.05 1.18-.16 1.76.38-.09.78-.25 1.19-.47 1.8-.96 3.95-.96 5.75-.01 5.85 3.09 13.58 1.95 17.97-2.66l.72.69c-4.69 4.92-12.94 6.15-19.17 2.85-1.48-.78-3.32-.78-4.81.01-.66.35-1.3.57-1.91.65-.99 3.38-3.68 6.25-7.1 7.33-1.09.31-2.19.46-3.27.46zm-3.37-20.29c-2.21 0-4.43 1.74-5.56 3.81-2.05 3.88-1.64 8.38 1.07 11.72.34.42.71.81 1.1 1.17 3.41-1.52 6.02-4.28 7.28-7.76.83-1.98.87-4.37.11-6.12-.55-1.26-1.44-2.13-2.65-2.58-.44-.16-.89-.23-1.34-.23zm12.04 8.11c-.32 0-.64.13-.88.37-.41.41-.43.9-.38 1.23.09.62.51 1.21 1.06 1.5.35.18.72.28 1.1.31.13-.61.2-1.23.2-1.85 0-.66-.08-1.12-.51-1.39-.18-.12-.39-.17-.6-.17zM180.24 185.75h-.15c-1.54 0-2.46-1.11-2.7-2.2-.28-1.28.33-2.5 1.5-3.04 2.09-.96 4.29-1.63 6.54-1.98-1.1-.52-2.22-1.13-3.12-2.01-1.07-1.04-2.03-2.78-1.48-4.56.42-1.36 1.68-2.49 3.39-3.02 1.46-.45 3.05-.44 4.45-.42l15.75.15c1.54.01 3.23.2 4.01 1.49.76 1.24.28 2.85-1.36 4.54-1.25 1.29-2.61 2.48-4.06 3.57.95-.14 1.92-.23 2.9-.15 1.58.14 3.12.91 4.02 2.02.62.76.88 1.62.78 2.5l-.99-.12c.07-.61-.11-1.2-.56-1.75-.72-.89-2.03-1.54-3.33-1.65-1.34-.12-2.66.12-4.06.38-.23.04-.47.08-.71.13-6.03 3.91-13.4 6.12-20.82 6.12zm8.86-6.5c-3.34 0-6.7.74-9.79 2.17-.91.42-1.08 1.3-.94 1.92.14.65.68 1.41 1.73 1.41h.14c6.48 0 12.92-1.73 18.41-4.83-1.74.08-3.48-.13-5.16-.33-1.06-.13-2.15-.26-3.22-.31-.39-.02-.78-.03-1.17-.03zm0-1c.41 0 .81.01 1.22.03 1.1.06 2.21.19 3.29.32 1.83.22 3.73.45 5.56.28.5-.04 1.01-.12 1.52-.21 2.07-1.36 3.98-2.92 5.66-4.67.74-.77 1.89-2.23 1.22-3.32-.53-.87-1.9-1-3.17-1.01l-15.75-.15c-1.39-.01-2.83-.03-4.15.38-1.37.42-2.41 1.32-2.73 2.35-.34 1.11.14 2.5 1.22 3.55 1.05 1.01 2.46 1.65 3.82 2.26l-.14.3c.8-.08 1.61-.12 2.42-.12zM90.93 57.42c-4.33 0-7.54-3.34-7.54-7.56v-.04c0-4.18 3.15-7.6 7.66-7.6 2.77 0 4.43.92 5.79 2.27l-2.06 2.37c-1.13-1.03-2.29-1.66-3.76-1.66-2.48 0-4.26 2.06-4.26 4.58v.04c0 2.52 1.74 4.62 4.26 4.62 1.68 0 2.71-.67 3.86-1.72l2.06 2.08c-1.51 1.62-3.19 2.62-6.03 2.62zM106.26 57.42c-4.54 0-7.79-3.38-7.79-7.56v-.04c0-4.18 3.3-7.6 7.83-7.6s7.79 3.38 7.79 7.56v.04c0 4.18-3.3 7.6-7.83 7.6zm4.45-7.6c0-2.52-1.85-4.62-4.45-4.62s-4.41 2.06-4.41 4.58v.04c0 2.52 1.85 4.62 4.45 4.62s4.41-2.06 4.41-4.58v-.04zM127.28 57.17l-7.12-9.34v9.34h-3.19v-14.7h2.98l6.89 9.05v-9.05h3.19v14.7h-2.75zM140.22 45.45v11.72h-3.23v-11.72h-4.47v-2.98h12.18v2.98h-4.47zM156.09 57.17l-3.15-4.7h-2.54v4.7h-3.23v-14.7h6.72c3.46 0 5.54 1.83 5.54 4.85v.04c0 2.37-1.28 3.86-3.15 4.56l3.59 5.25h-3.78zm.06-9.68c0-1.39-.97-2.1-2.54-2.1h-3.21v4.22h3.28c1.57 0 2.48-.84 2.48-2.08v-.04zM173.29 57.17l-1.34-3.3h-6.21l-1.34 3.3h-3.3l6.3-14.8h2.98l6.3 14.8h-3.38zm-4.45-10.92l-1.95 4.77h3.91l-1.95-4.77zM184.89 57.42c-4.33 0-7.54-3.34-7.54-7.56v-.04c0-4.18 3.15-7.6 7.66-7.6 2.77 0 4.43.92 5.79 2.27l-2.06 2.37c-1.13-1.03-2.29-1.66-3.76-1.66-2.48 0-4.26 2.06-4.26 4.58v.04c0 2.52 1.74 4.62 4.26 4.62 1.68 0 2.71-.67 3.86-1.72l2.06 2.08c-1.51 1.62-3.19 2.62-6.03 2.62zM200.15 45.45v11.72h-3.23v-11.72h-4.47v-2.98h12.18v2.98h-4.47z"/></g></svg>